<?xml version="1.0" encoding="UTF-8"?>
<svg id="Layer_1" data-name="Layer 1" xmlns="http://www.w3.org/2000/svg" viewBox="0 0 534.24 188.64">
  <defs>
    <style>
      .cls-1 {
        fill: #020202;
      }

      .cls-1, .cls-2, .cls-3, .cls-4, .cls-5, .cls-6, .cls-7, .cls-8, .cls-9, .cls-10, .cls-11, .cls-12, .cls-13, .cls-14, .cls-15, .cls-16, .cls-17, .cls-18 {
        stroke-width: 0px;
      }

      .cls-2 {
        fill: #040404;
      }

      .cls-3 {
        fill: #000;
      }

      .cls-4 {
        fill: #fcfcfc;
      }

      .cls-5 {
        fill: #f9f9f9;
      }

      .cls-6 {
        fill: #050505;
      }

      .cls-7 {
        fill: #0b0b0b;
      }

      .cls-8 {
        fill: #080808;
      }

      .cls-9 {
        fill: #fdfdfd;
      }

      .cls-10 {
        fill: #070707;
      }

      .cls-11 {
        fill: #010101;
      }

      .cls-12 {
        fill: #060606;
      }

      .cls-13 {
        fill: #f6f6f6;
      }

      .cls-14 {
        fill: #04528f;
      }

      .cls-15 {
        fill: #f8f8f8;
      }

      .cls-16 {
        fill: #f0f0f0;
      }

      .cls-17 {
        fill: #0a0a0a;
      }

      .cls-18 {
        fill: #030303;
      }
    </style>
  </defs>
  <path class="cls-9" d="M0,188.64V0h534.24v188.64H0ZM491.94,127.28c-150.04.33-299.82.66-449.6.99v6.82c149.97-.33,299.81-.66,449.6-.99v-6.82ZM491.96,3.13c-150.05.29-299.82.58-449.63.86v6.82c149.96-.29,299.79-.58,449.63-.87V3.13ZM372.74,19.9v47.48h10.85v-32.31c.16-.01.32-.03.48-.04,2.92,10.8,5.85,21.6,8.76,32.38h9.22c2.82-10.82,5.61-21.55,8.41-32.28.21.04.43.09.64.13v32.14h13.24V19.95h-18.97c-2.17,8.26-4.3,16.4-6.43,24.54-.16,0-.31,0-.47,0-2.26-8.21-4.52-16.42-6.77-24.59h-18.98ZM48,67.4h14.47v-17.98h4.89c2.13,5.55,4.2,11.03,6.36,16.46.26.65,1.04,1.55,1.6,1.56,4.92.12,9.85.07,15.09.07-2.94-7.1-5.76-13.92-8.61-20.81,3.26-1.77,6.11-3.57,7.43-7.03,3.64-9.48-2.07-18.93-12.36-19.49-9.47-.52-18.98-.24-28.48-.3-.12,0-.24.18-.39.31v47.2ZM143.82,19.96h-35.81v47.43h35.73v-11.2h-21.4v-7.86h17.15v-10.57h-17.1v-7.21h21.42v-10.59ZM479.03,19.95h-35.81v47.45h35.76v-11.19h-21.43v-7.94h17.1v-10.57h-17.05v-7.13h21.43v-10.63ZM185.99,19.93h-15.51c-4.9,15.85-9.78,31.62-14.72,47.58,3.64,0,7.07.07,10.48-.06.58-.02,1.42-.78,1.64-1.39.81-2.14,1.3-4.4,2.15-6.53.26-.65,1.23-1.42,1.91-1.45,3.35-.15,6.71-.13,10.06,0,.6.02,1.47.75,1.69,1.35.77,2.15,1.24,4.42,2.01,6.58.22.62,1.06,1.42,1.64,1.44,4.47.12,8.94.07,13.62.07-5.02-15.97-10-31.79-14.96-47.58ZM230.27,19.94h-14.3v47.46h33.23v-11.55h-18.93V19.94ZM300.76,31.12v36.21h13.81V31.06h9.67v-11.1h-33.49v11.16h10.01ZM339.17,19.94v47.39h14.27V19.94h-14.27ZM91.05,78.98c-2.06,0-3.91-.13-5.72.07-.7.08-1.68.77-1.93,1.41-1.84,4.63-3.52,9.32-5.26,13.99-1.96,5.29-3.93,10.58-6.1,16.42-.52-1.26-.83-1.96-1.09-2.66-3.48-9.17-6.95-18.35-10.48-27.5-.26-.67-.96-1.58-1.53-1.64-2.03-.2-4.1-.08-6.15-.08v39.59h4.07v-32.86c.75.55,1.06,1.15,1.3,1.79,3.58,9.48,7.26,18.92,10.66,28.46.88,2.46,2.04,3.31,4.44,2.6,4.09-10.98,8.18-21.95,12.27-32.93l.74.14v32.8h4.77v-39.59ZM133.81,118.74c4.9,0,9.75.02,14.6,0,5.14-.02,9.23-2.14,12.17-6.34,4.57-6.53,5.21-13.75,2.94-21.14-2-6.53-6.32-11.2-13.42-11.9-5.35-.53-10.79-.1-16.29-.1v39.5ZM323.68,87.9c-2.7-8.51-10.24-10.82-18.3-9.23-5.51,1.09-8.9,4.93-9.05,9.62-.18,5.77,2.31,9.15,8.22,10.92,3.56,1.07,7.22,1.83,10.76,2.98,3.33,1.09,4.77,3.21,4.67,6.12-.11,3.29-1.94,5.58-5.23,6.57-7.04,2.11-12.53-.39-16.32-7.5-1.33.32-2.68.64-4.05.97,3.76,10.08,15.71,14.5,24.86,9.24,4.16-2.39,6.19-6.13,5.88-10.94-.29-4.43-2.87-7.3-6.87-8.91-1.68-.68-3.49-1.02-5.24-1.54-3.03-.89-6.23-1.44-9.05-2.78-3.81-1.8-4.04-6.64-.71-9.25,2.95-2.31,6.27-2.38,9.73-1.44,3.39.93,5.46,3.27,6.63,6.43,1.52-.48,2.79-.87,4.06-1.27ZM101.25,79.07v39.49h25.31v-4.17h-20.51v-14.43h15.7v-3.87h-15.69v-12.84h19.98v-4.19h-24.79ZM332.26,79.07c-.08.3-.2.52-.2.75.06,9.09-.03,18.19.25,27.28.24,8.06,3.77,11.7,11.81,12.34,7.97.64,15.06-2.94,15.16-12.92.07-7.66.06-15.32.09-22.98,0-1.48,0-2.97,0-4.48h-4c0,.7,0,1.32,0,1.93,0,8.46.04,16.92-.02,25.37-.03,4.95-2.56,7.94-7.29,8.86-6.08,1.19-10.76-2.12-10.99-8.26-.3-8.37-.18-16.75-.24-25.12,0-.92,0-1.85,0-2.79h-4.56ZM211.33,105.59c-.51,1.37-.85,2.51-1.33,3.58-1.57,3.48-4,5.89-8.03,6.21-4.45.35-7.6-1.74-9.43-5.56-3.43-7.13-3.24-14.47-.17-21.65,1.72-4,4.99-6.05,9.51-5.81,4.21.22,6.56,2.8,8.14,6.36.44.99.82,2,1.24,3.03,1.58-.33,3-.63,4.37-.92-.16-.68-.24-1.15-.39-1.6-1.87-5.49-4.9-9.87-11.16-10.74-6.84-.95-12.63,1.06-16,7.32-4.74,8.82-4.43,17.84.45,26.55,3.3,5.89,9.36,8.31,16.14,6.81,5.6-1.24,10.1-6.57,10.74-12.79-1.31-.26-2.62-.51-4.07-.79ZM374.02,102.46c3.9,0,7.49.08,11.07-.02,5.65-.16,10.24-4.55,10.98-10.34.7-5.55-2.74-11.54-8.12-12.35-6.14-.93-12.46-.74-18.61-1.04v39.87h4.69v-16.12ZM407.49,102.47c3.88,0,7.45.07,11.02-.02,5.86-.14,10.61-4.74,11.15-10.69.54-5.96-3.28-11.61-9.19-12.21-5.8-.59-11.71-.13-17.63-.13v39.21h4.65v-16.17ZM217.19,118.51q3.85.57,4.87-2.81c.71-2.34,1.53-4.66,2.15-7.03.31-1.2.82-1.66,2.1-1.63,3.91.09,7.82.08,11.73,0,1.28-.03,1.82.45,2.19,1.6,1.09,3.37,2.29,6.71,3.43,10.03h4.75c-.05-.38-.04-.7-.14-.99-4.04-12.31-8.12-24.61-12.07-36.95-.52-1.63-1.39-1.63-2.75-1.81-2.72-.36-4.12.6-4.53,3.3-.16,1.08-.66,2.11-1,3.16-3.58,11.04-7.16,22.08-10.75,33.14ZM305.95,171.31v-11.88c2.12,0,4.03.1,5.92-.03,1.27-.09,1.81.41,2.2,1.52,1.25,3.5,2.59,6.96,3.85,10.3h5.41c-1.72-4.37-3.36-8.53-5.01-12.71.46-.28.72-.45.99-.61,3.27-1.97,4.74-4.91,4.19-8.36-.63-3.97-2.58-6.48-6.76-6.85-5.26-.47-10.6-.11-15.98-.11v28.73h5.18ZM72.54,171.32c-1.71-4.37-3.37-8.59-5.01-12.78.42-.28.6-.44.81-.54,3.52-1.8,4.76-4.74,4.31-8.5-.48-3.99-2.53-6.42-6.76-6.81-5.26-.48-10.59-.11-15.91-.11v28.68h5.2v-11.76h7.47c1.52,3.97,3.04,7.94,4.53,11.83h5.37ZM460.86,171.36c0-5.21.09-10.23-.03-15.23-.07-2.8-1.35-5.08-4.07-6.2-2.74-1.13-5.33-.63-7.55,1.31-.96.84-1.71,1.91-2.68,3.01-1.11-3.09-3.07-4.86-6.25-4.86-3.1,0-5.18,1.88-7.23,4.71v-4.12h-4.59v21.27h5.03c0-4.22-.08-8.27.05-12.32.04-1.11.52-2.33,1.13-3.28,1.15-1.8,3.03-2.4,5.03-1.83,1.92.54,2.31,2.34,2.34,4.05.07,4.44.03,8.89.03,13.43h4.94c0-3.54-.09-6.95.04-10.36.06-1.56.32-3.18.88-4.62.82-2.13,2.66-2.89,4.86-2.53,2.06.34,2.86,1.78,2.89,3.76.02,2.07.09,4.14.1,6.21.02,2.52,0,5.05,0,7.61h5.09ZM473.82,118.66c0-4.65-.14-9.18.07-13.7.09-1.88.61-3.91,1.51-5.55,3.4-6.2,7.03-12.26,10.57-18.38.34-.59.62-1.21.97-1.89q-4.04-.35-5.92,2.88c-2.94,5.04-5.88,10.08-8.96,15.36-3.37-5.81-6.56-11.38-9.84-16.9-.38-.64-1.17-1.32-1.87-1.43-1.38-.22-2.81-.07-4.54-.07.5.95.84,1.63,1.22,2.29,3.61,6.26,7.28,12.49,10.78,18.81.72,1.31,1.11,2.95,1.16,4.45.15,4.68.05,9.37.05,14.13h4.82ZM168.01,151.99c-.28-.97-.43-1.5-.57-2.03-1.41-5-4.98-7.99-9.84-8.24-4.73-.25-9.03,2.42-10.84,7.06-2.31,5.9-2.19,11.79.78,17.47,2.28,4.36,6.6,6.4,11.34,5.45,5.22-1.04,8.4-4.5,8.9-9.74-1.48-.2-2.95-.4-4.5-.62-.21.65-.37,1.24-.58,1.81-.87,2.41-2.38,4.13-5.08,4.38-2.44.23-4.51-1.14-5.61-3.96-1.82-4.69-1.73-9.47.08-14.16.84-2.17,2.51-3.44,4.93-3.49,2.43-.05,4.06,1.18,5.05,3.31.46.99.8,2.03,1.25,3.17,1.48-.13,2.94-.26,4.69-.41ZM259.37,114.42v-35.33h-4.71v39.5h23.14v-4.17h-18.43ZM441.11,114.43v-35.33h-4.68v39.48h23.12v-4.15c-3.12,0-6.08,0-9.03,0s-6.04,0-9.41,0ZM363.79,157.98c-1.42,0-2.87-.17-4.26.04-2.1.32-4.25.68-6.22,1.44-2.89,1.12-3.99,3.27-3.8,6.44.17,2.81,1.73,4.73,4.7,5.57,4.12,1.18,7.26-.29,9.56-4.03.34,1.45.62,2.64.91,3.88h3.78c0-4.96-.1-9.85.03-14.74.14-5.62-3.22-6.69-6.77-7.17-1.18-.16-2.4-.12-3.59,0-4.65.43-7.32,2.53-7.85,6.09,1.24.18,2.48.35,3.68.53,1.55-2.98,4.31-4.12,7.45-3.07,2.32.78,2.83,2.53,2.37,5.04ZM113.59,157.31c-3.77.74-7.26,1.11-10.54,2.15-3.05.97-4.11,3.31-3.85,6.6.21,2.67,1.8,4.53,4.62,5.4,3.67,1.14,6.49.03,9.67-3.87.29,1.26.57,2.44.86,3.68h4.45c-.12-.82-.29-1.52-.32-2.23-.15-4.61-.09-9.25-.5-13.84-.14-1.53-1.11-3.38-2.31-4.36-3.07-2.5-10.77-1.95-13.67.79-1.02.97-1.67,2.34-2.63,3.74,1.78.26,3.03.44,4.25.62,1.63-2.98,4.26-4.08,7.42-3.09,2.35.74,2.87,2.51,2.57,4.39ZM184.54,157.53c-3.18.46-6.23.61-9.11,1.38-4.36,1.16-6.16,4.35-5.14,8.26.88,3.36,4.76,5.55,8.59,4.36,2.11-.65,3.93-2.22,5.73-3.28.16.66.44,1.87.72,3.06h4.39c-.11-.86-.27-1.63-.29-2.41-.15-4.61-.1-9.25-.5-13.84-.13-1.46-1.08-3.23-2.22-4.16-3.22-2.63-11.15-1.97-14.05.99-.9.92-1.44,2.18-2.28,3.51,1.73.24,3.03.42,4.28.6,1.45-2.92,4.09-4.03,7.25-3.1,2.36.69,2.95,2.43,2.62,4.63ZM228.55,161.1c.7-5.81-2.65-10.7-7.86-11.64-5.23-.94-10.13,2.31-11.4,7.8-.4,1.75-.32,3.64-.22,5.46.29,4.91,3.66,8.53,8.51,9.12,4.46.54,9.42-1.8,10.63-6.7-1.58.62-3.24-1.7-4.75.54-1.66,2.46-4.24,3.13-6.64,1.95-2.34-1.14-3.29-3.5-2.56-6.53h14.28ZM95.74,161.09c.6-5.91-2.71-10.71-7.91-11.64-5.22-.93-10.16,2.35-11.37,7.83-.42,1.9-.36,3.97-.18,5.93.41,4.7,4.03,8.18,8.75,8.66,4.81.49,8.77-2.04,10.3-6.57q-3.86-.66-4.66.42c-1.75,2.36-4.3,3.08-6.69,1.9-2.33-1.16-3.29-3.57-2.51-6.53h14.29ZM346.59,161.18c.42-6.26-2.83-10.88-8.03-11.75-5.17-.86-9.96,2.29-11.23,7.7-.46,1.97-.42,4.12-.23,6.16.44,4.79,4.25,8.27,9.05,8.59,4.25.28,9.22-2.29,9.91-6.66-1.33-.2-2.65-.4-3.9-.59-2.13,3.27-4.31,4.21-7.02,3.15-2.44-.95-3.52-3.27-3-6.61h14.45ZM485.19,161.17c.39-6.3-2.84-10.89-8.06-11.74-5.17-.85-9.96,2.31-11.22,7.72-.46,1.97-.42,4.13-.23,6.16.45,4.79,4.27,8.26,9.07,8.58,4.16.28,9.23-2.27,9.87-6.62-.86-.17-1.72-.48-2.57-.45-.66.03-1.52.32-1.91.8-1.91,2.36-4,3.12-6.43,2.16-2.44-.97-3.52-3.31-2.97-6.61h14.44ZM283.03,171.36c0-5.54.14-10.86-.05-16.18-.11-3.08-1.89-4.88-4.93-5.63-2.69-.66-4.83.34-6.51,2.45-.5.62-.98,1.27-1.8,2.33-.1-1.87-.17-3.15-.23-4.38h-4.01v21.3h4.59c0-3.66-.17-7.17.07-10.66.13-1.83.61-3.85,1.62-5.32.66-.96,2.65-1.64,3.86-1.42,1.03.18,2.04,1.7,2.61,2.86.45.92.27,2.18.28,3.29.03,3.78,0,7.57,0,11.36h4.5ZM414.85,142.36h-20.95v4.23h7.78v24.69h5.58v-24.82h7.59v-4.1ZM263.04,44.11v10.63h17.42v-10.63h-17.42ZM172.7,79.04v39.54h4.53v-39.54h-4.53ZM124.41,142.24v29.02h4.51v-29.02h-4.51ZM379.26,171.34v-29.01h-4.52v29.01h4.52ZM195.48,149.93v21.33h4.6c0-2.93-.01-5.7,0-8.48.03-5.36,1.19-7.01,6.07-8.71v-4.72c-3.34-.25-4.68,2.2-6.49,4.99v-4.41h-4.19ZM417.92,149.91v21.35h4.5v-21.35h-4.5ZM254.38,149.91v21.35h4.5v-21.35h-4.5ZM233.08,177.43c2.81.25,5.55-6.04,4.87-11.19h-4.87v5.11c.82.06,1.55.11,2.4.17-.86,2.12-1.62,4.01-2.39,5.92ZM422.47,142.35h-4.56v4.59h4.56v-4.59ZM254.31,146.93h4.52v-4.56h-4.52v4.56Z"/>
  <path class="cls-14" d="M491.94,127.28v6.82c-149.8.33-299.63.66-449.6.99v-6.82c149.78-.33,299.56-.66,449.6-.99Z"/>
  <path class="cls-14" d="M491.96,3.13v6.81c-149.84.29-299.67.58-449.63.87V4c149.81-.29,299.58-.58,449.63-.86Z"/>
  <path class="cls-1" d="M372.74,19.9h18.98c2.25,8.17,4.51,16.38,6.77,24.59.16,0,.31,0,.47,0,2.13-8.14,4.27-16.28,6.43-24.54h18.97v47.43h-13.24v-32.14c-.21-.04-.43-.09-.64-.13-2.8,10.73-5.59,21.46-8.41,32.28h-9.22c-2.92-10.78-5.84-21.58-8.76-32.38-.16.01-.32.03-.48.04v32.31h-10.85V19.9Z"/>
  <path class="cls-1" d="M48,67.4V20.2c.16-.13.27-.32.39-.31,9.49.06,19.01-.21,28.48.3,10.29.56,16,10,12.36,19.49-1.33,3.46-4.17,5.26-7.43,7.03,2.85,6.88,5.67,13.71,8.61,20.81-5.24,0-10.17.05-15.09-.07-.56-.01-1.34-.91-1.6-1.56-2.16-5.43-4.23-10.91-6.36-16.46h-4.89v17.98h-14.47ZM62.65,39.37c3.42-.37,6.58-.51,9.66-1.1,2.08-.39,2.75-2.16,2.63-4.22-.13-2.13-1.27-3.62-3.26-3.8-2.96-.28-5.96-.07-9.03-.07v9.2Z"/>
  <path class="cls-18" d="M143.82,19.96v10.59h-21.42v7.21h17.1v10.57h-17.15v7.86h21.4v11.2h-35.73V19.96h35.81Z"/>
  <path class="cls-18" d="M479.03,19.95v10.63h-21.43v7.13h17.05v10.57h-17.1v7.94h21.43v11.19h-35.76V19.95h35.81Z"/>
  <path class="cls-1" d="M185.99,19.93c4.96,15.79,9.94,31.61,14.96,47.58-4.68,0-9.15.05-13.62-.07-.58-.02-1.42-.82-1.64-1.44-.77-2.16-1.23-4.42-2.01-6.58-.21-.6-1.09-1.33-1.69-1.35-3.35-.13-6.71-.14-10.06,0-.68.03-1.65.79-1.91,1.45-.84,2.13-1.34,4.39-2.15,6.53-.23.6-1.06,1.36-1.64,1.39-3.42.13-6.85.06-10.48.06,4.94-15.96,9.82-31.73,14.72-47.58h15.51ZM180.72,47.55c-1.28-4.56-2.48-8.85-3.86-13.76-1.38,4.99-2.57,9.3-3.81,13.76h7.67Z"/>
  <path class="cls-11" d="M230.27,19.94v35.9h18.93v11.55h-33.23V19.94h14.3Z"/>
  <path class="cls-18" d="M300.76,31.12h-10.01v-11.16h33.49v11.1h-9.67v36.28h-13.81V31.12Z"/>
  <path class="cls-11" d="M339.17,19.94h14.27v47.39h-14.27V19.94Z"/>
  <path class="cls-1" d="M91.05,78.98v39.59h-4.77v-32.8l-.74-.14c-4.09,10.98-8.18,21.95-12.27,32.93-2.41.72-3.57-.13-4.44-2.6-3.4-9.54-7.08-18.99-10.66-28.46-.24-.63-.55-1.24-1.3-1.79v32.86h-4.07v-39.59c2.05,0,4.12-.12,6.15.08.57.06,1.27.97,1.53,1.64,3.53,9.15,6.99,18.33,10.48,27.5.27.71.57,1.4,1.09,2.66,2.17-5.84,4.14-11.13,6.1-16.42,1.73-4.67,3.42-9.36,5.26-13.99.26-.64,1.23-1.33,1.93-1.41,1.81-.2,3.65-.07,5.72-.07Z"/>
  <path class="cls-6" d="M133.81,118.74v-39.5c5.5,0,10.94-.42,16.29.1,7.1.7,11.42,5.37,13.42,11.9,2.27,7.39,1.63,14.6-2.94,21.14-2.94,4.2-7.02,6.32-12.17,6.34-4.85.02-9.7,0-14.6,0ZM138.69,114.43c3.26,0,6.36.09,9.46-.02,3.86-.15,6.94-1.91,8.86-5.24,3.5-6.06,3.66-12.43,1.02-18.82-1.59-3.85-4.5-6.51-8.73-6.94-3.46-.35-6.99-.07-10.61-.07v31.1Z"/>
  <path class="cls-12" d="M323.68,87.9c-1.27.4-2.54.79-4.06,1.27-1.17-3.17-3.24-5.51-6.63-6.43-3.46-.94-6.78-.87-9.73,1.44-3.34,2.62-3.11,7.45.71,9.25,2.82,1.33,6.02,1.89,9.05,2.78,1.75.51,3.56.86,5.24,1.54,4,1.61,6.58,4.48,6.87,8.91.31,4.8-1.72,8.55-5.88,10.94-9.16,5.26-21.1.84-24.86-9.24,1.37-.33,2.72-.65,4.05-.97,3.79,7.1,9.28,9.61,16.32,7.5,3.29-.99,5.12-3.28,5.23-6.57.1-2.9-1.35-5.03-4.67-6.12-3.53-1.16-7.19-1.91-10.76-2.98-5.91-1.77-8.4-5.15-8.22-10.92.14-4.7,3.53-8.54,9.05-9.62,8.07-1.59,15.61.73,18.3,9.23Z"/>
  <path class="cls-1" d="M101.25,79.07h24.79v4.19h-19.98v12.84h15.69v3.87h-15.7v14.43h20.51v4.17h-25.31v-39.49Z"/>
  <path class="cls-12" d="M332.26,79.07h4.56c0,.94,0,1.86,0,2.79.06,8.37-.06,16.76.24,25.12.22,6.13,4.91,9.44,10.99,8.26,4.73-.92,7.26-3.91,7.29-8.86.06-8.46.02-16.92.02-25.37,0-.62,0-1.24,0-1.93h4c0,1.51,0,2.99,0,4.48-.02,7.66-.02,15.32-.09,22.98-.09,9.98-7.19,13.56-15.16,12.92-8.04-.64-11.57-4.28-11.81-12.34-.27-9.09-.19-18.18-.25-27.28,0-.22.12-.45.2-.75Z"/>
  <path class="cls-6" d="M211.33,105.59c1.45.28,2.77.54,4.07.79-.64,6.22-5.14,11.55-10.74,12.79-6.78,1.5-12.84-.92-16.14-6.81-4.88-8.72-5.19-17.73-.45-26.55,3.36-6.26,9.16-8.27,16-7.32,6.26.87,9.29,5.25,11.16,10.74.15.45.23.92.39,1.6-1.38.29-2.79.59-4.37.92-.42-1.03-.8-2.04-1.24-3.03-1.58-3.56-3.93-6.13-8.14-6.36-4.52-.24-7.79,1.81-9.51,5.81-3.08,7.18-3.27,14.51.17,21.65,1.84,3.82,4.98,5.91,9.43,5.56,4.04-.32,6.46-2.74,8.03-6.21.48-1.07.83-2.2,1.33-3.58Z"/>
  <path class="cls-6" d="M374.02,102.46v16.12h-4.69v-39.87c6.16.3,12.47.11,18.61,1.04,5.39.82,8.82,6.81,8.12,12.35-.73,5.79-5.32,10.18-10.98,10.34-3.58.1-7.17.02-11.07.02ZM374.22,83.23v15.48c3.84-.17,7.53-.08,11.13-.57,3.78-.51,5.97-3.85,5.71-7.87-.25-3.89-2.76-6.77-6.49-6.99-3.41-.21-6.84-.04-10.35-.04Z"/>
  <path class="cls-6" d="M407.49,102.47v16.17h-4.65v-39.21c5.92,0,11.83-.46,17.63.13,5.91.6,9.73,6.25,9.19,12.21-.54,5.94-5.29,10.55-11.15,10.69-3.57.08-7.15.02-11.02.02ZM407.71,98.69c3.83-.17,7.57-.09,11.24-.56,3.53-.46,5.64-3.44,5.69-7.19.05-3.67-2.12-7.16-5.36-7.49-3.82-.39-7.7-.09-11.58-.09v15.33Z"/>
  <path class="cls-12" d="M217.19,118.51c3.59-11.06,7.17-22.1,10.75-33.14.34-1.05.84-2.08,1-3.16.4-2.7,1.8-3.66,4.53-3.3,1.36.18,2.23.19,2.75,1.81,3.95,12.34,8.03,24.64,12.07,36.95.09.29.09.6.14.99h-4.75c-1.14-3.32-2.34-6.66-3.43-10.03-.37-1.15-.92-1.63-2.19-1.6-3.91.09-7.82.09-11.73,0-1.29-.03-1.79.43-2.1,1.63-.62,2.37-1.43,4.68-2.15,7.03q-1.03,3.37-4.87,2.81ZM232.35,84.25c-2.17,6.71-4.14,12.81-6.16,19.07h12.29c-2.01-6.24-3.97-12.34-6.13-19.07Z"/>
  <path class="cls-2" d="M305.95,171.31h-5.18v-28.73c5.38,0,10.72-.36,15.98.11,4.18.37,6.13,2.87,6.76,6.85.54,3.46-.93,6.39-4.19,8.36-.27.16-.53.33-.99.61,1.65,4.18,3.29,8.34,5.01,12.71h-5.41c-1.26-3.34-2.6-6.81-3.85-10.3-.4-1.11-.94-1.61-2.2-1.52-1.9.13-3.81.03-5.92.03v11.88ZM306,155.1c2.74,0,5.28.11,7.8-.03,2.51-.14,4.07-1.72,4.24-3.98.17-2.27-1.07-4.26-3.32-4.47-2.86-.26-5.77-.06-8.72-.06v8.54Z"/>
  <path class="cls-2" d="M72.54,171.32h-5.37c-1.49-3.9-3.01-7.86-4.53-11.83h-7.47v11.76h-5.2v-28.68c5.32,0,10.65-.36,15.91.11,4.23.39,6.28,2.82,6.76,6.81.46,3.77-.78,6.7-4.31,8.5-.21.11-.39.26-.81.54,1.64,4.19,3.3,8.41,5.01,12.78ZM55.2,155.1c2.69,0,5.22.1,7.74-.03,2.61-.14,4.21-1.81,4.3-4.18.1-2.42-1.35-4.18-4-4.37-2.65-.19-5.32-.04-8.05-.04v8.61Z"/>
  <path class="cls-10" d="M460.86,171.36h-5.09c0-2.57.01-5.09,0-7.61-.01-2.07-.08-4.14-.1-6.21-.02-1.98-.82-3.42-2.89-3.76-2.2-.36-4.04.4-4.86,2.53-.55,1.45-.82,3.07-.88,4.62-.13,3.41-.04,6.83-.04,10.36h-4.94c0-4.54.05-8.99-.03-13.43-.03-1.71-.42-3.5-2.34-4.05-2-.56-3.88.03-5.03,1.83-.61.95-1.1,2.17-1.13,3.28-.13,4.05-.05,8.1-.05,12.32h-5.03v-21.27h4.59v4.12c2.05-2.83,4.13-4.71,7.23-4.71,3.19,0,5.14,1.77,6.25,4.86.97-1.11,1.72-2.18,2.68-3.01,2.22-1.93,4.81-2.44,7.55-1.31,2.71,1.12,4,3.4,4.07,6.2.12,5.01.03,10.02.03,15.23Z"/>
  <path class="cls-18" d="M473.82,118.66h-4.82c0-4.76.09-9.45-.05-14.13-.05-1.5-.43-3.15-1.16-4.45-3.5-6.32-7.18-12.55-10.78-18.81-.38-.66-.71-1.34-1.22-2.29,1.73,0,3.17-.16,4.54.07.69.11,1.48.79,1.87,1.43,3.28,5.52,6.48,11.09,9.84,16.9,3.08-5.29,6.03-10.32,8.96-15.36q1.88-3.23,5.92-2.88c-.34.68-.63,1.3-.97,1.89-3.54,6.12-7.17,12.18-10.57,18.38-.9,1.65-1.42,3.67-1.51,5.55-.21,4.52-.07,9.06-.07,13.7Z"/>
  <path class="cls-6" d="M168.01,151.99c-1.75.15-3.22.28-4.69.41-.45-1.14-.79-2.18-1.25-3.17-.99-2.13-2.62-3.36-5.05-3.31-2.43.05-4.1,1.33-4.93,3.49-1.81,4.68-1.9,9.46-.08,14.16,1.09,2.82,3.17,4.19,5.61,3.96,2.7-.25,4.21-1.97,5.08-4.38.21-.57.37-1.16.58-1.81,1.55.21,3.02.41,4.5.62-.49,5.24-3.67,8.7-8.9,9.74-4.74.94-9.06-1.09-11.34-5.45-2.97-5.69-3.09-11.58-.78-17.47,1.82-4.64,6.11-7.3,10.84-7.06,4.86.26,8.43,3.25,9.84,8.24.15.53.3,1.06.57,2.03Z"/>
  <path class="cls-11" d="M259.37,114.42h18.43v4.17h-23.14v-39.5h4.71v35.33Z"/>
  <path class="cls-11" d="M441.11,114.43c3.37,0,6.39,0,9.41,0s5.9,0,9.03,0v4.15h-23.12v-39.48h4.68v35.33Z"/>
  <path class="cls-2" d="M363.79,157.98c.46-2.5-.05-4.26-2.37-5.04-3.14-1.05-5.91.09-7.45,3.07-1.2-.17-2.44-.35-3.68-.53.53-3.56,3.2-5.65,7.85-6.09,1.19-.11,2.41-.15,3.59,0,3.55.48,6.91,1.55,6.77,7.17-.12,4.89-.03,9.78-.03,14.74h-3.78c-.29-1.25-.57-2.44-.91-3.88-2.3,3.74-5.44,5.21-9.56,4.03-2.97-.85-4.53-2.77-4.7-5.57-.19-3.16.91-5.32,3.8-6.44,1.97-.76,4.12-1.12,6.22-1.44,1.39-.21,2.84-.04,4.26-.04ZM363.8,159.96c-2.69.67-5.18,1.11-7.51,1.95-1.55.56-2.22,2.06-1.82,3.74.4,1.7,1.63,2.4,3.33,2.49,4.14.22,6.24-2.35,6-8.18Z"/>
  <path class="cls-2" d="M113.59,157.31c.3-1.88-.22-3.65-2.57-4.39-3.16-1-5.79.11-7.42,3.09-1.22-.18-2.47-.36-4.25-.62.96-1.4,1.6-2.77,2.63-3.74,2.9-2.73,10.6-3.29,13.67-.79,1.19.97,2.17,2.82,2.31,4.36.41,4.59.35,9.22.5,13.84.02.71.2,1.41.32,2.23h-4.45c-.29-1.24-.56-2.42-.86-3.68-3.17,3.9-5.99,5.01-9.67,3.87-2.82-.88-4.41-2.73-4.62-5.4-.26-3.3.8-5.64,3.85-6.6,3.28-1.04,6.77-1.42,10.54-2.15ZM113.51,159.93c-2.78.72-5.33,1.18-7.72,2.08-1.55.58-2.32,2.32-1.52,3.78.57,1.04,2.01,2.09,3.18,2.24,4.1.51,6.2-2.17,6.07-8.1Z"/>
  <path class="cls-2" d="M184.54,157.53c.33-2.21-.26-3.94-2.62-4.63-3.16-.93-5.8.18-7.25,3.1-1.25-.17-2.55-.35-4.28-.6.84-1.32,1.38-2.59,2.28-3.51,2.9-2.96,10.83-3.63,14.05-.99,1.14.94,2.1,2.7,2.22,4.16.4,4.59.35,9.22.5,13.84.03.77.18,1.54.29,2.41h-4.39c-.28-1.19-.56-2.4-.72-3.06-1.8,1.06-3.63,2.63-5.73,3.28-3.83,1.19-7.72-1-8.59-4.36-1.02-3.91.78-7.1,5.14-8.26,2.88-.77,5.93-.92,9.11-1.38ZM184.41,159.96c-2.68.68-5.17,1.12-7.51,1.96-1.55.56-2.2,2.08-1.79,3.76.41,1.7,1.66,2.38,3.36,2.46,4.14.2,6.26-2.43,5.93-8.18Z"/>
  <path class="cls-8" d="M228.55,161.1h-14.28c-.73,3.03.23,5.38,2.56,6.53,2.4,1.17,4.99.51,6.64-1.95,1.51-2.24,3.17.08,4.75-.54-1.21,4.9-6.17,7.24-10.63,6.7-4.86-.59-8.23-4.21-8.51-9.12-.11-1.81-.18-3.71.22-5.46,1.26-5.49,6.17-8.74,11.4-7.8,5.21.94,8.56,5.84,7.86,11.64ZM223.43,157.92c-.07-3.09-1.84-5.14-4.41-5.18-2.78-.04-4.62,1.92-4.85,5.18h9.26Z"/>
  <path class="cls-8" d="M95.74,161.09h-14.29c-.78,2.96.18,5.37,2.51,6.53,2.39,1.19,4.93.47,6.69-1.9q.8-1.08,4.66-.42c-1.53,4.53-5.49,7.06-10.3,6.57-4.72-.48-8.34-3.96-8.75-8.66-.17-1.96-.24-4.03.18-5.93,1.22-5.48,6.15-8.76,11.37-7.83,5.21.92,8.52,5.73,7.91,11.64ZM81.19,157.92h9.41c-.1-3.02-1.73-4.99-4.21-5.17-2.66-.19-4.55,1.64-5.2,5.17Z"/>
  <path class="cls-8" d="M346.59,161.18h-14.45c-.52,3.34.56,5.65,3,6.61,2.71,1.06,4.89.12,7.02-3.15,1.25.19,2.57.39,3.9.59-.7,4.38-5.67,6.95-9.91,6.66-4.8-.32-8.61-3.81-9.05-8.59-.19-2.04-.23-4.19.23-6.16,1.28-5.42,6.07-8.56,11.23-7.7,5.21.87,8.45,5.49,8.03,11.75ZM331.97,157.93h9.39c.03-2.91-1.6-4.96-4.08-5.18-2.63-.24-4.55,1.57-5.31,5.18Z"/>
  <path class="cls-8" d="M485.19,161.17h-14.44c-.56,3.3.53,5.64,2.97,6.61,2.43.97,4.53.2,6.43-2.16.39-.48,1.25-.77,1.91-.8.85-.04,1.71.28,2.57.45-.64,4.35-5.7,6.9-9.87,6.63-4.8-.32-8.62-3.79-9.07-8.58-.19-2.04-.23-4.19.23-6.16,1.27-5.41,6.05-8.57,11.22-7.72,5.21.85,8.45,5.44,8.06,11.74ZM480.06,157.94c-.25-3.21-1.92-5.11-4.39-5.19-2.74-.1-4.57,1.79-5,5.19h9.39Z"/>
  <path class="cls-17" d="M283.03,171.36h-4.5c0-3.79.02-7.57,0-11.36,0-1.11.17-2.37-.28-3.29-.56-1.15-1.58-2.67-2.61-2.86-1.21-.22-3.2.46-3.86,1.42-1.01,1.46-1.49,3.49-1.62,5.32-.24,3.49-.07,7-.07,10.66h-4.59v-21.3h4.01c.06,1.22.13,2.51.23,4.38.82-1.06,1.3-1.71,1.8-2.33,1.68-2.1,3.83-3.11,6.51-2.45,3.05.75,4.82,2.55,4.93,5.63.19,5.31.05,10.64.05,16.18Z"/>
  <path class="cls-3" d="M414.85,142.36v4.1h-7.59v24.82h-5.58v-24.69h-7.78v-4.23h20.95Z"/>
  <path class="cls-12" d="M263.04,44.11h17.42v10.63h-17.42v-10.63Z"/>
  <path class="cls-12" d="M172.7,79.04h4.53v39.54h-4.53v-39.54Z"/>
  <path class="cls-12" d="M124.41,142.24h4.51v29.02h-4.51v-29.02Z"/>
  <path class="cls-12" d="M379.26,171.34h-4.52v-29.01h4.52v29.01Z"/>
  <path class="cls-7" d="M195.48,149.93h4.19v4.41c1.81-2.79,3.14-5.24,6.49-4.99v4.72c-4.88,1.7-6.04,3.35-6.07,8.71-.02,2.78,0,5.56,0,8.48h-4.6v-21.33Z"/>
  <path class="cls-12" d="M417.92,149.91h4.5v21.35h-4.5v-21.35Z"/>
  <path class="cls-12" d="M254.38,149.91h4.5v21.35h-4.5v-21.35Z"/>
  <path class="cls-17" d="M233.08,177.43c.77-1.9,1.53-3.79,2.39-5.92-.85-.06-1.57-.11-2.4-.17v-5.11h4.87c.68,5.15-2.06,11.44-4.87,11.19Z"/>
  <path class="cls-12" d="M422.47,142.35v4.59h-4.56v-4.59h4.56Z"/>
  <path class="cls-12" d="M254.31,146.93v-4.56h4.52v4.56h-4.52Z"/>
  <path class="cls-16" d="M62.65,39.37v-9.2c3.07,0,6.07-.21,9.03.07,1.98.19,3.13,1.67,3.26,3.8.12,2.07-.55,3.83-2.63,4.22-3.08.58-6.23.73-9.66,1.1Z"/>
  <path class="cls-16" d="M180.72,47.55h-7.67c1.24-4.47,2.43-8.77,3.81-13.76,1.38,4.91,2.58,9.2,3.86,13.76Z"/>
  <path class="cls-9" d="M138.69,114.43v-31.1c3.62,0,7.15-.28,10.61.07,4.23.43,7.14,3.09,8.73,6.94,2.64,6.39,2.48,12.76-1.02,18.82-1.92,3.33-5.01,5.09-8.86,5.24-3.1.12-6.2.02-9.46.02Z"/>
  <path class="cls-4" d="M374.22,83.23c3.51,0,6.94-.16,10.35.04,3.73.23,6.24,3.1,6.49,6.99.26,4.02-1.93,7.36-5.71,7.87-3.6.49-7.28.4-11.13.57v-15.48Z"/>
  <path class="cls-4" d="M407.71,98.69v-15.33c3.87,0,7.76-.3,11.58.09,3.23.33,5.41,3.82,5.36,7.49-.05,3.75-2.16,6.73-5.69,7.19-3.67.48-7.41.4-11.24.56Z"/>
  <path class="cls-5" d="M232.35,84.25c2.16,6.73,4.13,12.83,6.13,19.07h-12.29c2.02-6.25,3.99-12.35,6.16-19.07Z"/>
  <path class="cls-4" d="M306,155.1v-8.54c2.95,0,5.86-.2,8.72.06,2.25.21,3.49,2.19,3.32,4.47-.17,2.26-1.73,3.85-4.24,3.98-2.52.14-5.06.03-7.8.03Z"/>
  <path class="cls-4" d="M55.2,155.1v-8.61c2.73,0,5.4-.14,8.05.04,2.64.19,4.1,1.94,4,4.37-.1,2.37-1.7,4.04-4.3,4.18-2.52.13-5.05.03-7.74.03Z"/>
  <path class="cls-13" d="M363.8,159.96c.24,5.82-1.86,8.39-6,8.18-1.71-.09-2.93-.79-3.33-2.49-.4-1.69.27-3.19,1.82-3.74,2.34-.84,4.82-1.27,7.51-1.95Z"/>
  <path class="cls-13" d="M113.51,159.93c.14,5.93-1.96,8.61-6.07,8.1-1.17-.15-2.61-1.2-3.18-2.24-.79-1.46-.02-3.19,1.52-3.78,2.39-.9,4.94-1.36,7.72-2.08Z"/>
  <path class="cls-13" d="M184.41,159.96c.32,5.75-1.8,8.38-5.93,8.18-1.7-.08-2.95-.76-3.36-2.46-.41-1.68.24-3.2,1.79-3.76,2.34-.85,4.83-1.29,7.51-1.96Z"/>
  <path class="cls-15" d="M223.43,157.92h-9.26c.23-3.27,2.06-5.23,4.85-5.18,2.57.04,4.34,2.1,4.41,5.18Z"/>
  <path class="cls-15" d="M81.19,157.92c.66-3.53,2.54-5.36,5.2-5.17,2.48.18,4.11,2.15,4.21,5.17h-9.41Z"/>
  <path class="cls-15" d="M331.97,157.93c.77-3.61,2.68-5.42,5.31-5.18,2.48.22,4.11,2.27,4.08,5.18h-9.39Z"/>
  <path class="cls-15" d="M480.06,157.94h-9.39c.43-3.4,2.26-5.29,5-5.19,2.47.09,4.14,1.99,4.39,5.19Z"/>
</svg>