<?xml version="1.0" encoding="UTF-8"?>
<svg id="Layer_1" xmlns="http://www.w3.org/2000/svg" version="1.1" viewBox="0 0 449.6 174.3">
  <!-- Generator: Adobe Illustrator 29.3.1, SVG Export Plug-In . SVG Version: 2.1.0 Build 151)  -->
  <defs>
    <style>
      .st0 {
        fill: #070707;
      }

      .st1 {
        fill: #050505;
      }

      .st2 {
        fill: #010101;
      }

      .st3 {
        fill: #030303;
      }

      .st4 {
        fill: #060606;
      }

      .st5 {
        fill: #020202;
      }

      .st6 {
        fill: #0b0b0b;
      }

      .st7 {
        fill: #f9f9f9;
      }

      .st8 {
        fill: #f0f0f0;
      }

      .st9 {
        fill: #040404;
      }

      .st10 {
        fill: #080808;
      }

      .st11 {
        fill: #0a0a0a;
      }

      .st12 {
        fill: #04528f;
      }
    </style>
  </defs>
  <path class="st12" d="M449.6,124.1v6.8c-149.8.3-299.6.7-449.6,1v-6.8c149.8-.3,299.6-.7,449.6-1Z"/>
  <path class="st12" d="M449.6,0v6.8c-149.8.3-299.7.6-449.6.9V.9C149.8.6,299.6.3,449.6,0h0Z"/>
  <path class="st5" d="M330.4,16.8h19c2.2,8.2,4.5,16.4,6.8,24.6h.5c2.1-8.1,4.3-16.3,6.4-24.5h19v47.4h-13.2v-32.1c-.2,0-.4,0-.6-.1-2.8,10.7-5.6,21.5-8.4,32.3h-9.2c-2.9-10.8-5.8-21.6-8.8-32.4-.2,0-.3,0-.5,0v32.3h-10.9V16.8h0Z"/>
  <path class="st5" d="M5.7,64.3V17.1c.2-.1.3-.3.4-.3,9.5,0,19-.2,28.5.3,10.3.6,16,10,12.4,19.5-1.3,3.5-4.2,5.3-7.4,7,2.8,6.9,5.7,13.7,8.6,20.8-5.2,0-10.2,0-15.1,0-.6,0-1.3-.9-1.6-1.6-2.2-5.4-4.2-10.9-6.4-16.5h-4.9v18H5.7h0ZM20.3,36.2c3.4-.4,6.6-.5,9.7-1.1,2.1-.4,2.8-2.2,2.6-4.2-.1-2.1-1.3-3.6-3.3-3.8-3-.3-6,0-9,0v9.2h0Z"/>
  <path class="st3" d="M101.5,16.8v10.6h-21.4v7.2h17.1v10.6h-17.2v7.9h21.4v11.2h-35.7V16.8h35.8,0Z"/>
  <path class="st3" d="M436.7,16.8v10.6h-21.4v7.1h17v10.6h-17.1v7.9h21.4v11.2h-35.8V16.8h35.8Z"/>
  <path class="st5" d="M143.7,16.8c5,15.8,9.9,31.6,15,47.6-4.7,0-9.1,0-13.6,0-.6,0-1.4-.8-1.6-1.4-.8-2.2-1.2-4.4-2-6.6-.2-.6-1.1-1.3-1.7-1.3-3.4-.1-6.7-.1-10.1,0-.7,0-1.6.8-1.9,1.5-.8,2.1-1.3,4.4-2.1,6.5-.2.6-1.1,1.4-1.6,1.4-3.4.1-6.9,0-10.5,0,4.9-16,9.8-31.7,14.7-47.6h15.5ZM138.4,44.4c-1.3-4.6-2.5-8.9-3.9-13.8-1.4,5-2.6,9.3-3.8,13.8,0,0,7.7,0,7.7,0Z"/>
  <path class="st2" d="M187.9,16.8v35.9h18.9v11.6h-33.2V16.8h14.3,0Z"/>
  <path class="st3" d="M258.4,28h-10v-11.2h33.5v11.1h-9.7v36.3h-13.8V28h0Z"/>
  <path class="st2" d="M296.8,16.8h14.3v47.4h-14.3V16.8Z"/>
  <path class="st5" d="M48.7,75.9v39.6h-4.8v-32.8h-.7c-4.1,10.8-8.2,21.8-12.3,32.8-2.4.7-3.6-.1-4.4-2.6-3.4-9.5-7.1-19-10.7-28.5-.2-.6-.5-1.2-1.3-1.8v32.9h-4.1v-39.6c2,0,4.1-.1,6.2,0,.6,0,1.3,1,1.5,1.6,3.5,9.2,7,18.3,10.5,27.5.3.7.6,1.4,1.1,2.7,2.2-5.8,4.1-11.1,6.1-16.4,1.7-4.7,3.4-9.4,5.3-14,.3-.6,1.2-1.3,1.9-1.4,1.8-.2,3.7,0,5.7,0h0Z"/>
  <path class="st1" d="M91.5,115.6v-39.5c5.5,0,10.9-.4,16.3,0,7.1.7,11.4,5.4,13.4,11.9,2.3,7.4,1.6,14.6-2.9,21.1-2.9,4.2-7,6.3-12.2,6.3-4.9,0-9.7,0-14.6,0h0ZM96.4,111.3c3.3,0,6.4,0,9.5,0,3.9-.2,6.9-1.9,8.9-5.2,3.5-6.1,3.7-12.4,1-18.8-1.6-3.8-4.5-6.5-8.7-6.9-3.5-.3-7,0-10.6,0v31.1h0Z"/>
  <path class="st4" d="M281.4,84.8c-1.3.4-2.5.8-4.1,1.3-1.2-3.2-3.2-5.5-6.6-6.4-3.5-.9-6.8-.9-9.7,1.4-3.3,2.6-3.1,7.4.7,9.2,2.8,1.3,6,1.9,9,2.8,1.8.5,3.6.9,5.2,1.5,4,1.6,6.6,4.5,6.9,8.9.3,4.8-1.7,8.6-5.9,10.9-9.2,5.3-21.1.8-24.9-9.2,1.4-.3,2.7-.7,4-1,3.8,7.1,9.3,9.6,16.3,7.5,3.3-1,5.1-3.3,5.2-6.6.1-2.9-1.4-5-4.7-6.1-3.5-1.2-7.2-1.9-10.8-3-5.9-1.8-8.4-5.2-8.2-10.9.1-4.7,3.5-8.5,9-9.6,8.1-1.6,15.6.7,18.3,9.2h0Z"/>
  <path class="st5" d="M58.9,75.9h24.8v4.2h-20v12.8h15.7v3.9h-15.7v14.4h20.5v4.2h-25.3v-39.5h0Z"/>
  <path class="st4" d="M289.9,75.9h4.6v2.8c0,8.4,0,16.8.2,25.1.2,6.1,4.9,9.4,11,8.3,4.7-.9,7.3-3.9,7.3-8.9,0-8.5,0-16.9,0-25.4v-1.9h4v4.5c0,7.7,0,15.3,0,23,0,10-7.2,13.6-15.2,12.9-8-.6-11.6-4.3-11.8-12.3-.3-9.1-.2-18.2-.2-27.3,0-.2.1-.4.2-.8h0Z"/>
  <path class="st1" d="M169,102.5c1.4.3,2.8.5,4.1.8-.6,6.2-5.1,11.6-10.7,12.8-6.8,1.5-12.8-.9-16.1-6.8-4.9-8.7-5.2-17.7-.4-26.6,3.4-6.3,9.2-8.3,16-7.3,6.3.9,9.3,5.2,11.2,10.7.1.4.2.9.4,1.6-1.4.3-2.8.6-4.4.9-.4-1-.8-2-1.2-3-1.6-3.6-3.9-6.1-8.1-6.4-4.5-.2-7.8,1.8-9.5,5.8-3.1,7.2-3.3,14.5.2,21.7,1.8,3.8,5,5.9,9.4,5.6,4-.3,6.5-2.7,8-6.2.5-1.1.8-2.2,1.3-3.6h0Z"/>
  <path class="st1" d="M331.7,99.3v16.1h-4.7v-39.9c6.2.3,12.5.1,18.6,1,5.4.8,8.8,6.8,8.1,12.3-.7,5.8-5.3,10.2-11,10.3-3.6,0-7.2,0-11.1,0h0ZM331.9,80.1v15.5c3.8-.2,7.5,0,11.1-.6,3.8-.5,6-3.8,5.7-7.9-.2-3.9-2.8-6.8-6.5-7-3.4-.2-6.8,0-10.4,0h0Z"/>
  <path class="st1" d="M365.2,99.3v16.2h-4.6v-39.2c5.9,0,11.8-.5,17.6.1,5.9.6,9.7,6.2,9.2,12.2-.5,5.9-5.3,10.6-11.1,10.7-3.6,0-7.1,0-11,0h0ZM365.4,95.6c3.8-.2,7.6,0,11.2-.6,3.5-.5,5.6-3.4,5.7-7.2,0-3.7-2.1-7.2-5.4-7.5-3.8-.4-7.7,0-11.6,0v15.3h0Z"/>
  <path class="st4" d="M174.9,115.4c3.6-11.1,7.2-22.1,10.8-33.1.3-1.1.8-2.1,1-3.2.4-2.7,1.8-3.7,4.5-3.3,1.4.2,2.2.2,2.8,1.8,3.9,12.3,8,24.6,12.1,37,0,.3,0,.6.1,1h-4.8c-1.1-3.3-2.3-6.7-3.4-10-.4-1.2-.9-1.6-2.2-1.6-3.9,0-7.8,0-11.7,0-1.3,0-1.8.4-2.1,1.6-.6,2.4-1.4,4.7-2.1,7-.7,2.2-2.3,3.2-4.9,2.8h0ZM190,81.1c-2.2,6.7-4.1,12.8-6.2,19.1h12.3c-2-6.2-4-12.3-6.1-19.1h0Z"/>
  <path class="st9" d="M263.6,168.2h-5.2v-28.7c5.4,0,10.7-.4,16,.1,4.2.4,6.1,2.9,6.8,6.9.5,3.5-.9,6.4-4.2,8.4-.3.2-.5.3-1,.6,1.6,4.2,3.3,8.3,5,12.7h-5.4c-1.3-3.3-2.6-6.8-3.9-10.3-.4-1.1-.9-1.6-2.2-1.5-1.9.1-3.8,0-5.9,0v11.9h0ZM263.7,152c2.7,0,5.3.1,7.8,0,2.5-.1,4.1-1.7,4.2-4,.2-2.3-1.1-4.3-3.3-4.5-2.9-.3-5.8,0-8.7,0v8.5h0Z"/>
  <path class="st9" d="M30.2,168.2h-5.4c-1.5-3.9-3-7.9-4.5-11.8h-7.5v11.8h-5.2v-28.7c5.3,0,10.6-.4,15.9.1,4.2.4,6.3,2.8,6.8,6.8.5,3.8-.8,6.7-4.3,8.5-.2.1-.4.3-.8.5,1.6,4.2,3.3,8.4,5,12.8h0ZM12.9,152c2.7,0,5.2.1,7.7,0,2.6-.1,4.2-1.8,4.3-4.2,0-2.4-1.3-4.2-4-4.4s-5.3,0-8,0v8.6h0Z"/>
  <path class="st0" d="M418.5,168.2h-5.1c0-2.6,0-5.1,0-7.6,0-2.1,0-4.1-.1-6.2,0-2-.8-3.4-2.9-3.8-2.2-.4-4,.4-4.9,2.5-.5,1.4-.8,3.1-.9,4.6-.1,3.4,0,6.8,0,10.4h-4.9c0-4.5,0-9,0-13.4,0-1.7-.4-3.5-2.3-4.1-2-.6-3.9,0-5,1.8-.6.9-1.1,2.2-1.1,3.3-.1,4.1,0,8.1,0,12.3h-5v-21.3h4.6v4.1c2-2.8,4.1-4.7,7.2-4.7s5.1,1.8,6.2,4.9c1-1.1,1.7-2.2,2.7-3,2.2-1.9,4.8-2.4,7.5-1.3,2.7,1.1,4,3.4,4.1,6.2.1,5,0,10,0,15.2h0Z"/>
  <path class="st3" d="M431.5,115.5h-4.8c0-4.8,0-9.4,0-14.1,0-1.5-.4-3.2-1.2-4.4-3.5-6.3-7.2-12.6-10.8-18.8-.4-.7-.7-1.3-1.2-2.3,1.7,0,3.2-.2,4.5,0,.7.1,1.5.8,1.9,1.4,3.3,5.5,6.5,11.1,9.8,16.9,3.1-5.3,6-10.3,9-15.4,1.3-2.2,3.2-3.1,5.9-2.9-.3.7-.6,1.3-1,1.9-3.5,6.1-7.2,12.2-10.6,18.4-.9,1.7-1.4,3.7-1.5,5.6-.2,4.5,0,9.1,0,13.7h0Z"/>
  <path class="st1" d="M125.7,148.9c-1.8.1-3.2.3-4.7.4-.4-1.1-.8-2.2-1.2-3.2-1-2.1-2.6-3.4-5.1-3.3-2.4,0-4.1,1.3-4.9,3.5-1.8,4.7-1.9,9.5,0,14.2,1.1,2.8,3.2,4.2,5.6,4,2.7-.2,4.2-2,5.1-4.4.2-.6.4-1.2.6-1.8,1.6.2,3,.4,4.5.6-.5,5.2-3.7,8.7-8.9,9.7-4.7.9-9.1-1.1-11.3-5.4-3-5.7-3.1-11.6-.8-17.5,1.8-4.6,6.1-7.3,10.8-7.1,4.9.3,8.4,3.2,9.8,8.2.1.5.3,1.1.6,2h0Z"/>
  <path class="st2" d="M217,111.3h18.4v4.2h-23.1v-39.5h4.7v35.3Z"/>
  <path class="st2" d="M398.8,111.3h18.4v4.2h-23.1v-39.5h4.7s0,35.3,0,35.3Z"/>
  <path class="st9" d="M321.5,154.8c.5-2.5,0-4.3-2.4-5-3.1-1.1-5.9,0-7.5,3.1-1.2-.2-2.4-.4-3.7-.5.5-3.6,3.2-5.6,7.9-6.1,1.2-.1,2.4-.1,3.6,0,3.5.5,6.9,1.6,6.8,7.2-.1,4.9,0,9.8,0,14.7h-3.8c-.3-1.2-.6-2.4-.9-3.9-2.3,3.7-5.4,5.2-9.6,4-3-.9-4.5-2.8-4.7-5.6-.2-3.2.9-5.3,3.8-6.4,2-.8,4.1-1.1,6.2-1.4,1.4-.2,2.8,0,4.3,0h0ZM321.5,156.8c-2.7.7-5.2,1.1-7.5,1.9-1.5.6-2.2,2.1-1.8,3.7.4,1.7,1.6,2.4,3.3,2.5,4.1.2,6.2-2.4,6-8.2h0Z"/>
  <path class="st9" d="M71.3,154.2c.3-1.9-.2-3.6-2.6-4.4-3.2-1-5.8.1-7.4,3.1-1.2-.2-2.5-.4-4.2-.6,1-1.4,1.6-2.8,2.6-3.7,2.9-2.7,10.6-3.3,13.7-.8,1.2,1,2.2,2.8,2.3,4.4.4,4.6.3,9.2.5,13.8,0,.7.2,1.4.3,2.2h-4.4c-.3-1.2-.6-2.4-.9-3.7-3.2,3.9-6,5-9.7,3.9-2.8-.9-4.4-2.7-4.6-5.4-.3-3.3.8-5.6,3.8-6.6,3.3-1,6.8-1.4,10.5-2.1h0ZM71.2,156.8c-2.8.7-5.3,1.2-7.7,2.1-1.6.6-2.3,2.3-1.5,3.8.6,1,2,2.1,3.2,2.2,4.1.5,6.2-2.2,6.1-8.1h0Z"/>
  <path class="st9" d="M142.2,154.4c.3-2.2-.3-3.9-2.6-4.6-3.2-.9-5.8.2-7.2,3.1-1.2-.2-2.6-.4-4.3-.6.8-1.3,1.4-2.6,2.3-3.5,2.9-3,10.8-3.6,14.1-1,1.1.9,2.1,2.7,2.2,4.2.4,4.6.4,9.2.5,13.8,0,.8.2,1.5.3,2.4h-4.4c-.3-1.2-.6-2.4-.7-3.1-1.8,1.1-3.6,2.6-5.7,3.3-3.8,1.2-7.7-1-8.6-4.4-1-3.9.8-7.1,5.1-8.3,2.9-.8,5.9-.9,9.1-1.4h0ZM142.1,156.8c-2.7.7-5.2,1.1-7.5,2-1.6.6-2.2,2.1-1.8,3.8.4,1.7,1.7,2.4,3.4,2.5,4.1.2,6.3-2.4,5.9-8.2h0Z"/>
  <path class="st10" d="M186.2,158h-14.3c-.7,3,.2,5.4,2.6,6.5,2.4,1.2,5,.5,6.6-1.9,1.5-2.2,3.2,0,4.8-.5-1.2,4.9-6.2,7.2-10.6,6.7-4.9-.6-8.2-4.2-8.5-9.1-.1-1.8-.2-3.7.2-5.5,1.3-5.5,6.2-8.7,11.4-7.8,5.2.9,8.6,5.8,7.9,11.6h0ZM181.1,154.8c0-3.1-1.8-5.1-4.4-5.2-2.8,0-4.6,1.9-4.9,5.2h9.3Z"/>
  <path class="st10" d="M53.4,158h-14.3c-.8,3,.2,5.4,2.5,6.5,2.4,1.2,4.9.5,6.7-1.9.5-.7,2.1-.9,4.7-.4-1.5,4.5-5.5,7.1-10.3,6.6-4.7-.5-8.3-4-8.8-8.7-.2-2-.2-4,.2-5.9,1.2-5.5,6.2-8.8,11.4-7.8,5.2.9,8.5,5.7,7.9,11.6h0ZM38.9,154.8h9.4c0-3-1.7-5-4.2-5.2-2.7-.2-4.6,1.6-5.2,5.2Z"/>
  <path class="st10" d="M304.3,158h-14.5c-.5,3.3.6,5.6,3,6.6,2.7,1.1,4.9.1,7-3.1,1.2.2,2.6.4,3.9.6-.7,4.4-5.7,6.9-9.9,6.7-4.8-.3-8.6-3.8-9-8.6-.2-2-.2-4.2.2-6.2,1.3-5.4,6.1-8.6,11.2-7.7,5.2.9,8.5,5.5,8,11.8h0ZM289.6,154.8h9.4c0-2.9-1.6-5-4.1-5.2-2.6-.2-4.5,1.6-5.3,5.2h0Z"/>
  <path class="st10" d="M442.9,158h-14.4c-.6,3.3.5,5.6,3,6.6,2.4,1,4.5.2,6.4-2.2.4-.5,1.2-.8,1.9-.8.9,0,1.7.3,2.6.4-.6,4.4-5.7,6.9-9.9,6.6-4.8-.3-8.6-3.8-9.1-8.6-.2-2-.2-4.2.2-6.2,1.3-5.4,6-8.6,11.2-7.7,5.2.9,8.5,5.4,8.1,11.7h0ZM437.7,154.8c-.2-3.2-1.9-5.1-4.4-5.2-2.7-.1-4.6,1.8-5,5.2h9.4Z"/>
  <path class="st11" d="M240.7,168.2h-4.5c0-3.8,0-7.6,0-11.4,0-1.1.2-2.4-.3-3.3-.6-1.1-1.6-2.7-2.6-2.9-1.2-.2-3.2.5-3.9,1.4-1,1.5-1.5,3.5-1.6,5.3-.2,3.5,0,7,0,10.7h-4.6v-21.3h4c0,1.2.1,2.5.2,4.4.8-1.1,1.3-1.7,1.8-2.3,1.7-2.1,3.8-3.1,6.5-2.4,3,.8,4.8,2.6,4.9,5.6.2,5.3,0,10.6,0,16.2h0Z"/>
  <path d="M372.5,139.2v4.1h-7.6v24.8h-5.6v-24.7h-7.8v-4.2h21,0Z"/>
  <path class="st4" d="M220.7,41h17.4v10.6h-17.4v-10.6Z"/>
  <path class="st4" d="M130.4,75.9h4.5v39.5h-4.5v-39.5Z"/>
  <path class="st4" d="M82.1,139.1h4.5v29h-4.5s0-29,0-29Z"/>
  <path class="st4" d="M336.9,168.2h-4.5v-29h4.5v29Z"/>
  <path class="st6" d="M153.2,146.8h4.2v4.4c1.8-2.8,3.1-5.2,6.5-5v4.7c-4.9,1.7-6,3.4-6.1,8.7,0,2.8,0,5.6,0,8.5h-4.6v-21.3h0Z"/>
  <path class="st4" d="M375.6,146.8h4.5v21.4h-4.5v-21.4Z"/>
  <path class="st4" d="M212.1,146.8h4.5v21.4h-4.5v-21.4Z"/>
  <path class="st11" d="M190.8,174.3c.8-1.9,1.5-3.8,2.4-5.9-.9,0-1.6-.1-2.4-.2v-5.1h4.9c.7,5.1-2.1,11.4-4.9,11.2h0Z"/>
  <path class="st4" d="M380.1,139.2v4.6h-4.6v-4.6h4.6Z"/>
  <path class="st4" d="M212,143.8v-4.6h4.5v4.6h-4.5,0Z"/>
  <path class="st8" d="M20.3,36.2v-9.2c3.1,0,6.1-.2,9,0,2,.2,3.1,1.7,3.3,3.8.1,2.1-.6,3.8-2.6,4.2-3.1.6-6.2.7-9.7,1.1h0Z"/>
  <path class="st7" d="M190,81.1h0c2.2,6.7,4.1,12.8,6.1,19.1h-12.3"/>
</svg>
